<svg version="1.2" xmlns="http://www.w3.org/2000/svg" viewBox="0 0 916 798" width="916" height="798">
	<title>RFID_Logo_Positivo</title>
	<style>
		.s0 { fill: #0a0a0d } 
		.s1 { fill: #32408c } 
	</style>
	<g>
		<g>
			<path class="s0" d="m614.2 373.5l-22.1 80.5h-322.1c8.9-30.3 17-58.1 23.6-80.5z"/>
			<path class="s0" d="m293.6 373.5c-6.6 22.4-14.7 50.2-23.6 80.5h-251c-10.3 0-18.6-8.4-18.6-18.7v-43.2c0-10.3 8.3-18.6 18.6-18.6z"/>
			<path class="s0" d="m915.6 392.1v43.2c0 10.3-8.3 18.7-18.6 18.7h-304.9l22.1-80.5h282.8c10.3 0 18.6 8.3 18.6 18.6z"/>
		</g>
		<rect width="916" height="798" id="Relleno de color sólido 1" style="fill: #f26419"/>
		<g id="Carpeta 1">
			<path class="s1" d="m471.7 373.5h-86.7l-34.6-86.9c-1.6-4.2-4.9-7.5-9.1-9.1-2.5-1-6.4-1.7-10.6 0.3q-0.5 0.2-1 0.5c-9.9 5.4-19.1 36.9-22.5 48.8-2.8 9.3-7.5 25.6-13.6 46.4-6.6 22.4-14.7 50.2-23.6 80.5-8.7 29.6-18.1 61.6-27.4 93.2-27.6 94.4-56.2 191.9-64.8 221.3-5.1 17.6-21.2 29-38.6 29-3.8 0-7.6-0.5-11.3-1.6-21.4-6.3-33.6-28.6-27.4-50 8.5-29.4 37.2-127 64.8-221.3 7-23.7 14-47.6 20.7-70.6 8.6-29.1 16.7-56.8 23.6-80.5 9.3-31.7 16.6-56.4 20.2-68.9 8.2-28.3 22-75.6 61.4-97.1q2.3-1.3 4.7-2.4c23.6-11.3 50.1-12.2 74.7-2.6 24.9 9.7 44.8 29.5 54.7 54.3z"/>
			<path class="s1" d="m785.8 51.4l-88.1 322.1-22.1 80.5-33 120.5c-10.6 38.7-43.3 65.1-83.3 67.4q-2.7 0.1-5.4 0.1c-37.8 0-70.8-22.2-84.9-57.8l-51.9-130.2h86.7l40 100.4c2 5 5.7 7.3 11 7 5.3-0.3 8.7-3 10.1-8.2l27.2-99.2 22.1-80.5 93.9-343.3c5.9-21.5 28.1-34.1 49.5-28.3 21.5 5.9 34.1 28.1 28.2 49.5z"/>
		</g>
		<rect width="916" height="798" id="Relleno de color sólido 2" style="fill: #136ad3"/>
	</g>
</svg>